<svg xmlns="http://www.w3.org/2000/svg" xmlns:xlink="http://www.w3.org/1999/xlink" width="0" height="0" style="position:absolute">
	
		<symbol id="icon_arrow" viewBox="0 0 6 11">
			<path d="M.736.658a.79.79 0 0 1 1.2.098l3.514 4.9-1.13 1.133L.652 1.676A.79.79 0 0 1 .736.658z"></path><path d="M.828 10.748a.8.8 0 0 1-.115-.987c.065-.104.15-.195.22-.297l3.386-4.938 1.131 1.13-3.387 4.94a.89.89 0 0 1-.249.267.8.8 0 0 1-.986-.115z"></path>
		</symbol>
	
		<symbol id="icon_dog" viewBox="0 0 20 20">
			<path d="M9.96 0A9.955 9.955 0 0 0 0 9.96C0 15.427 4.415 20 9.96 20 15.456 20 20 15.472 20 9.96 20 4.41 15.42 0 9.96 0zm0 18.836c-4.845 0-8.796-3.986-8.796-8.875 0-4.846 3.95-8.797 8.797-8.797 4.89 0 8.875 3.95 8.875 8.797 0 4.89-3.986 8.875-8.875 8.875z" fill="currentColor"></path><path d="M9.96 3.516A6.453 6.453 0 0 0 3.517 9.96c0 3.567 2.885 6.523 6.445 6.523 1.44 0 2.897-.484 3.998-1.328a.586.586 0 1 0-.714-.93c-.9.69-2.096 1.094-3.284 1.094-2.908 0-5.273-2.408-5.273-5.36 0-2.907 2.365-5.28 5.273-5.28 2.95 0 5.352 2.373 5.352 5.28v.587c0 .646-.526 1.172-1.172 1.172a1.173 1.173 0 0 1-1.172-1.172v-2.93a.586.586 0 0 0-1.172 0v.037a3.02 3.02 0 0 0-1.836-.623 2.933 2.933 0 0 0-2.93 2.93 2.933 2.933 0 0 0 2.93 2.93c.876 0 1.682-.376 2.255-1.009a2.342 2.342 0 0 0 4.268-1.335V9.96c0-3.565-2.96-6.445-6.523-6.445zm0 8.21a1.767 1.767 0 0 1 0-3.53c.996 0 1.837.812 1.837 1.765 0 .953-.84 1.766-1.836 1.766z" fill="currentColor"></path>
		</symbol>
	
		<symbol id="icon_dropdown" viewBox="0 0 8 4">
			<path d="M4 4L0 0h8L4 4z" fill="#0072A7"></path>
		</symbol>
	
		<symbol id="icon_phone" viewBox="0 0 20 20">
			<path d="M19.486 14.752L17 12.265a1.76 1.76 0 0 0-2.487 0l-1.13 1.13c-.52.52-1.364.52-1.884 0L6.601 8.494a1.331 1.331 0 0 1 0-1.884l1.13-1.13a1.757 1.757 0 0 0 0-2.487L5.244.514A1.76 1.76 0 0 0 2.76.513l-.906.898a6.347 6.347 0 0 0 0 8.966l7.762 7.765a6.336 6.336 0 0 0 8.966 0l.904-.904a1.76 1.76 0 0 0 0-2.486zM3.587 1.343a.587.587 0 0 1 .83 0l2.485 2.479c.23.229.23.6 0 .828l-.414.415-3.313-3.313.412-.409zm6.858 15.97L2.683 9.549a5.153 5.153 0 0 1-.324-6.954l3.304 3.304a2.502 2.502 0 0 0 .109 3.424l4.898 4.902c.94.94 2.44.979 3.425.11l3.303 3.303a5.143 5.143 0 0 1-6.953-.323zm8.212-.903l-.414.414-3.315-3.315.414-.415a.587.587 0 0 1 .829 0l2.486 2.487c.229.228.229.6 0 .829z" fill="currentColor"></path>
		</symbol>
	
		<symbol id="icon_search" viewBox="0 0 18 18">
			<path d="M6.5 0A6.5 6.5 0 0 1 13 6.5c0 1.61-.59 3.09-1.56 4.23l.27.27h.79l5 5-1.5 1.5-5-5v-.79l-.27-.27A6.516 6.516 0 0 1 6.5 13a6.5 6.5 0 1 1 0-13zm0 2C4 2 2 4 2 6.5S4 11 6.5 11 11 9 11 6.5 9 2 6.5 2z"></path>
		</symbol>
	
</svg>
