<?xml version="1.0" encoding="utf-8"?>
<!DOCTYPE svg PUBLIC "-//W3C//DTD SVG 1.1//EN" "http://www.w3.org/Graphics/SVG/1.1/DTD/svg11.dtd">
<svg version="1.1" xmlns="http://www.w3.org/2000/svg" xmlns:xlink="http://www.w3.org/1999/xlink" x="0px" y="0px" viewBox="0 0 1000 1000" enable-background="new 0 0 1000 1000" xml:space="preserve">
<g><path d="M928.8,561.3H806.3c-33.9,0-61.3-27.4-61.3-61.3c0-33.8,27.4-61.3,61.3-61.3h122.5c33.9,0,61.3,27.4,61.3,61.3C990,533.9,962.6,561.3,928.8,561.3z M759.8,326.8c-23.9,23.9-62.7,23.9-86.6,0c-23.9-23.9-23.9-62.7,0-86.6l86.6-86.7c23.9-23.9,62.7-23.9,86.6,0c23.9,23.9,23.9,62.7,0,86.7L759.8,326.8z M500,990c-33.8,0-61.3-27.4-61.3-61.3V806.3c0-33.8,27.4-61.3,61.3-61.3c33.9,0,61.3,27.4,61.3,61.3v122.5C561.3,962.6,533.9,990,500,990z M500,255c-33.8,0-61.3-27.4-61.3-61.3V71.3c0-33.8,27.4-61.3,61.3-61.3c33.9,0,61.3,27.4,61.3,61.3v122.5C561.3,227.6,533.9,255,500,255z M240.1,846.5c-23.9,23.9-62.7,23.9-86.6,0c-23.9-23.9-23.9-62.7,0-86.6l86.6-86.7c23.9-23.9,62.7-23.9,86.6,0c23.9,23.9,23.9,62.7,0,86.7L240.1,846.5z M240.1,326.8l-86.6-86.6c-23.9-23.9-23.9-62.7,0-86.7c23.9-23.9,62.7-23.9,86.6,0l86.6,86.7c23.9,23.9,23.9,62.7,0,86.6C302.8,350.7,264.1,350.7,240.1,326.8z M255,500c0,33.9-27.4,61.3-61.3,61.3H71.3C37.4,561.3,10,533.9,10,500c0-33.8,27.4-61.3,61.3-61.3h122.5C227.6,438.8,255,466.2,255,500z M759.8,673.2l86.6,86.7c23.9,23.9,23.9,62.7,0,86.6c-23.9,23.9-62.7,23.9-86.6,0l-86.6-86.6c-23.9-23.9-23.9-62.7,0-86.7C697.2,649.3,735.9,649.3,759.8,673.2z"/></g>
</svg>