<svg xmlns="http://www.w3.org/2000/svg" xmlns:xlink="http://www.w3.org/1999/xlink" viewBox="0 0 801.9 165.7"><defs><path id="a" d="M41.2 22.4c-10.4 0-18.9 8.4-18.9 18.9v83.3c0 10.4 8.4 18.9 18.9 18.9h83.3c10.4 0 18.9-8.4 18.9-18.9V41.2c0-10.4-8.4-18.9-18.9-18.9H41.2z"/></defs><clipPath id="b"><use xlink:href="#a" overflow="visible"/></clipPath><linearGradient id="c" gradientUnits="userSpaceOnUse" x1="-557.533" y1="484.544" x2="-556.533" y2="484.544" gradientTransform="scale(-192.185 192.185) rotate(-72.801 -606.991 -134.913)"><stop offset="0" stop-color="#004c7f"/><stop offset="1" stop-color="#009ade"/></linearGradient><path clip-path="url(#b)" fill="url(#c)" d="M33 177.6L-11.8 33l144.6-44.8 44.8 144.6z"/><defs><path id="d" d="M-557.5-319.5h1920v804h-1920z"/></defs><clipPath id="e"><use xlink:href="#d" overflow="visible"/></clipPath><path d="M90.9 52.3c-8.1 6.2-12.8 13.3-12.8 22.5 0 2.5.4 5.3 1.2 8.3 1.5 6.5 11.3 14 23.8 19.8-3.7-4.3-5.6-9.4-4.4-15.7 4.5-23.6 32-25 63.9-27.1V30.6c-1.2.1-2.5.3-4.1.4-5.2.6-12.4 1.6-20.4 3.2-16 3.1-35.1 8.9-47.2 18.1" clip-path="url(#e)" fill="#fff"/><defs><path id="f" d="M184.9 65.7c0 25.4 12.8 25.3 34.7 26.9l5.2.4c11.1.7 12.4.6 12.4 8.3 0 7.5-3.7 8.2-14.8 8.2-11.6 0-14.9-.9-14.9-10.2h-22.7c0 29.1 15 29.6 37.6 29.6 39.1 0 38.5-14.4 38.5-29.1 0-20.4-6.5-23.7-32.8-25.6l-9.8-.7c-6.3-.5-9.7-.7-9.7-7.8 0-5 1.1-7.6 13.8-7.6 9.5 0 13.3 0 13.3 9.1h22.7v-3.7c0-24.5-16.6-24.9-36-24.9-23.1 0-37.5 1.6-37.5 27.1"/></defs><clipPath id="g"><use xlink:href="#f" overflow="visible"/></clipPath><linearGradient id="h" gradientUnits="userSpaceOnUse" x1="-557.528" y1="484.545" x2="-556.529" y2="484.545" gradientTransform="scale(124.004) rotate(-90 -34.886 -521.23)"><stop offset="0" stop-color="#004c7f"/><stop offset="1" stop-color="#009ade"/></linearGradient><path clip-path="url(#g)" fill="url(#h)" d="M184.8 38.6h76.7v90.2h-76.7z"/><g><defs><path id="i" d="M271.2 39.3v20.6h22.7V128h23.7V59.9h23.9V39.3z"/></defs><clipPath id="j"><use xlink:href="#i" overflow="visible"/></clipPath><linearGradient id="k" gradientUnits="userSpaceOnUse" x1="-557.529" y1="484.548" x2="-556.529" y2="484.548" gradientTransform="matrix(0 -124.004 -124.004 0 60392.195 -68960.586)"><stop offset="0" stop-color="#004c7f"/><stop offset="1" stop-color="#009ade"/></linearGradient><path clip-path="url(#j)" fill="url(#k)" d="M271.2 39.3h70.3v88.8h-70.3z"/></g><g><defs><path id="l" d="M387.4 57h.2l11 38.5h-22L387.4 57zm-18.2-17.7L342.6 128h24.6l4.4-15.3h31.8L408 128h24.1l-27-88.8h-35.9z"/></defs><clipPath id="m"><use xlink:href="#l" overflow="visible"/></clipPath><linearGradient id="n" gradientUnits="userSpaceOnUse" x1="-557.529" y1="484.548" x2="-556.529" y2="484.548" gradientTransform="matrix(0 -124.004 -124.004 0 60473.195 -68960.586)"><stop offset="0" stop-color="#004c7f"/><stop offset="1" stop-color="#009ade"/></linearGradient><path clip-path="url(#m)" fill="url(#n)" d="M342.6 39.3h89.6v88.8h-89.6z"/></g><g><defs><path id="o" d="M508.8 39.3l1.5 68.1h-1l-25.4-68.1h-40V128h23.6l-1.4-68.1h1l25.1 68.1h40.3V39.3z"/></defs><clipPath id="p"><use xlink:href="#o" overflow="visible"/></clipPath><linearGradient id="q" gradientUnits="userSpaceOnUse" x1="-557.529" y1="484.548" x2="-556.529" y2="484.548" gradientTransform="scale(124.004) rotate(-90 -33.816 -522.3)"><stop offset="0" stop-color="#004c7f"/><stop offset="1" stop-color="#009ade"/></linearGradient><path clip-path="url(#p)" fill="url(#q)" d="M443.9 39.3h88.6v88.8h-88.6z"/></g><g><defs><path id="r" d="M606.8 39.3L584 72.7h-7.1V39.3h-23.7V128h23.7V93.2h7.1l24.7 34.8h29.4l-33.9-45.2 31.3-43.5z"/></defs><clipPath id="s"><use xlink:href="#r" overflow="visible"/></clipPath><linearGradient id="t" gradientUnits="userSpaceOnUse" x1="-557.529" y1="484.547" x2="-556.529" y2="484.547" gradientTransform="matrix(0 -124.004 -124.004 0 60681.445 -68960.586)"><stop offset="0" stop-color="#004c7f"/><stop offset="1" stop-color="#009ade"/></linearGradient><path clip-path="url(#s)" fill="url(#t)" d="M553.2 39.3h84.9v88.8h-84.9z"/></g><g><defs><path id="u" d="M647.9 39.3h23.7v88.8h-23.7z"/></defs><clipPath id="v"><use xlink:href="#u" overflow="visible"/></clipPath><linearGradient id="w" gradientUnits="userSpaceOnUse" x1="-557.529" y1="484.548" x2="-556.529" y2="484.548" gradientTransform="matrix(0 -124.004 -124.004 0 60745.559 -68960.586)"><stop offset="0" stop-color="#004c7f"/><stop offset="1" stop-color="#009ade"/></linearGradient><path clip-path="url(#v)" fill="url(#w)" d="M647.9 39.3h23.7v88.8h-23.7z"/></g><g><defs><path id="x" d="M763.4 39.3L747.3 95h-.8l-17-55.7H692V128h23.7l-2.4-68h.7l22.8 68h20.4l22.5-68h.8l-2.3 68h23.7V39.3z"/></defs><clipPath id="y"><use xlink:href="#x" overflow="visible"/></clipPath><linearGradient id="z" gradientUnits="userSpaceOnUse" x1="-557.529" y1="484.548" x2="-556.529" y2="484.548" gradientTransform="matrix(0 -124.004 -124.004 0 60832.809 -68960.586)"><stop offset="0" stop-color="#004c7f"/><stop offset="1" stop-color="#009ade"/></linearGradient><path clip-path="url(#y)" fill="url(#z)" d="M692 39.3h109.8v88.8H692z"/></g><g><defs><path id="A" d="M-557.5-319.5h1920v804h-1920z"/></defs><clipPath id="B"><use xlink:href="#A" overflow="visible"/></clipPath><path d="M142.7 133.3c-20.1-9.5-45-15-62.5-25.6-8.9-5.5-16.3-11.9-18.8-20.6-1.1-3.8-1.6-7.5-1.6-11.1 0-13 7.2-23.3 16.9-30.7 9.8-7.4 22.4-12.5 34.9-16.2 11.1-3.2 22.1-5.3 30.9-6.7-23.8-2.4-70.3-1.7-96 34.3-14.8 20.7-17.4 51.5-1.1 71.7 6.2 7.7 13.7 13.2 21.9 17.5h95.2c-5.5-4.9-12.3-9.1-19.8-12.6" clip-path="url(#B)" fill="#fff"/><linearGradient id="C" gradientUnits="userSpaceOnUse" x1="-557.532" y1="484.545" x2="-556.532" y2="484.545" gradientTransform="matrix(0 -166.743 -166.743 0 80877.344 -92798.11)"><stop offset="0" stop-color="#004c7f"/><stop offset="1" stop-color="#009ade"/></linearGradient><path d="M128.7 160.2v5.5H37.1c-20.5 0-37.1-16.6-37.1-37V37.1C0 16.6 16.6 0 37.1 0h91.6c20.5 0 37.1 16.6 37.1 37.1v91.6c0 20.4-16.6 37-37.1 37.1v-11.1c14.4 0 26-11.7 26.1-26.1V37.1c0-14.3-11.7-26-26.1-26.1H37.1C22.7 11 11 22.7 11 37.1v91.6c0 14.3 11.7 26 26.1 26.1h91.6v5.4z" clip-path="url(#B)" fill="url(#C)"/></g></svg>