<svg width="35" height="40" viewBox="0 0 35 40" fill="none" xmlns="http://www.w3.org/2000/svg">
<path d="M0.5 39.5V6.689L6.82967 0.5H29.5V39.5H0.5Z" transform="translate(5)" fill="#E1E6E9" stroke="#333333"/>
<rect width="30" height="15" rx="1" transform="translate(0 15)" fill="#EB5757"/>
<path d="M7.56348 8.2168V11H6.62598V3.89062H9.24805C10.026 3.89062 10.6348 4.08919 11.0742 4.48633C11.5169 4.88346 11.7383 5.40918 11.7383 6.06348C11.7383 6.75358 11.5218 7.28581 11.0889 7.66016C10.6592 8.03125 10.0423 8.2168 9.23828 8.2168H7.56348ZM7.56348 7.4502H9.24805C9.74935 7.4502 10.1335 7.33301 10.4004 7.09863C10.6673 6.861 10.8008 6.51921 10.8008 6.07324C10.8008 5.65007 10.6673 5.31152 10.4004 5.05762C10.1335 4.80371 9.76725 4.67188 9.30176 4.66211H7.56348V7.4502ZM12.9346 11V3.89062H14.9414C15.5599 3.89062 16.1068 4.02734 16.582 4.30078C17.0573 4.57422 17.4235 4.96322 17.6807 5.46777C17.9411 5.97233 18.0729 6.55176 18.0762 7.20605V7.66016C18.0762 8.33073 17.946 8.91829 17.6855 9.42285C17.4284 9.92741 17.0589 10.3148 16.5771 10.585C16.0986 10.8551 15.5404 10.9935 14.9023 11H12.9346ZM13.8721 4.66211V10.2334H14.8584C15.5811 10.2334 16.1426 10.0088 16.543 9.55957C16.9466 9.11035 17.1484 8.4707 17.1484 7.64062V7.22559C17.1484 6.41829 16.958 5.79167 16.5771 5.3457C16.1995 4.89648 15.6624 4.66862 14.9658 4.66211H13.8721ZM23.418 7.86035H20.4346V11H19.4971V3.89062H23.9014V4.66211H20.4346V7.09375H23.418V7.86035Z" transform="translate(0 15)" fill="white"/>
</svg>
