<svg width="20" height="20" viewBox="0 0 20 20" xmlns="http://www.w3.org/2000/svg">
<path d="M19.4859 14.7519L16.9995 12.2655C16.314 11.5801 15.1985 11.5801 14.5131 12.2655L13.3829 13.3957C12.8636 13.915 12.0186 13.9149 11.4994 13.3959L6.60078 8.49307C6.08024 7.97254 6.08017 7.13004 6.60078 6.60943C6.78281 6.42739 7.30553 5.90468 7.73094 5.47927C8.41343 4.79681 8.42297 3.68485 7.73028 2.99224L5.24454 0.51432C4.55904 -0.17114 3.44364 -0.17114 2.75998 0.512523C2.2484 1.01965 2.08339 1.18326 1.854 1.41065C-0.617981 3.88259 -0.617981 7.90476 1.85389 10.3766L9.61563 18.1424C12.0934 20.6202 16.1037 20.6204 18.5817 18.1424L19.4859 17.2383C20.1714 16.5528 20.1714 15.4374 19.4859 14.7519ZM3.58697 1.34311C3.81546 1.11462 4.18719 1.11458 4.41642 1.34373L6.90216 3.82165C7.13119 4.05069 7.13119 4.42137 6.90216 4.65044L6.48772 5.06483L3.17469 1.7518L3.58697 1.34311ZM10.4446 17.3138L2.68279 9.54788C0.770283 7.63538 0.665161 4.63231 2.35949 2.59422L5.66292 5.89764C4.79491 6.88163 4.83109 8.38103 5.77179 9.32174L10.6703 14.2243C10.6703 14.2244 10.6704 14.2245 10.6704 14.2245C11.6101 15.1642 13.1095 15.2027 14.0947 14.3336L17.3982 17.6371C15.3666 19.3285 12.3702 19.2394 10.4446 17.3138ZM18.6571 16.4095L18.2427 16.8239L14.9275 13.5087L15.3419 13.0943C15.5704 12.8658 15.9422 12.8658 16.1707 13.0943L18.6571 15.5807C18.8856 15.8093 18.8856 16.1811 18.6571 16.4095Z" fill="currentColor"/>
</svg>
