<svg width="20" height="20" viewBox="0 0 20 20" xmlns="http://www.w3.org/2000/svg">
<path d="M9.96094 0C4.45547 0 0 4.45508 0 9.96094C0 15.4256 4.41504 20 9.96094 20C15.4548 20 20 15.4721 20 9.96094C20 4.40898 15.4196 0 9.96094 0ZM9.96094 18.8359C5.11465 18.8359 1.16406 14.8503 1.16406 9.96094C1.16406 5.11465 5.11465 1.16406 9.96094 1.16406C14.8503 1.16406 18.8359 5.11465 18.8359 9.96094C18.8359 14.8503 14.8503 18.8359 9.96094 18.8359Z" fill="currentColor"/>
<path d="M6.44531 0C2.89137 0 0 2.89137 0 6.44531C0 10.0126 2.88543 12.9688 6.44531 12.9688C7.8857 12.9688 9.34277 12.4846 10.4429 11.6406C10.6997 11.4436 10.7481 11.0758 10.5511 10.819C10.3541 10.5623 9.98629 10.5138 9.72957 10.7108C8.83 11.401 7.63293 11.8047 6.44531 11.8047C3.53754 11.8047 1.17188 9.39617 1.17188 6.44531C1.17188 3.53754 3.53754 1.16406 6.44531 1.16406C9.39617 1.16406 11.7969 3.53754 11.7969 6.44531V7.03125C11.7969 7.67742 11.2712 8.20312 10.625 8.20312C9.97883 8.20312 9.45312 7.67742 9.45312 7.03125C9.45312 6.74102 9.45312 4.40766 9.45312 4.10156C9.45312 3.77797 9.19078 3.51562 8.86719 3.51562C8.54359 3.51562 8.28125 3.77797 8.28125 4.10156V4.13871C7.75211 3.73523 7.11203 3.51562 6.44531 3.51562C4.82988 3.51562 3.51562 4.82988 3.51562 6.44531C3.51562 8.06074 4.82988 9.375 6.44531 9.375C7.32121 9.375 8.1273 8.99914 8.70059 8.36672C9.12434 8.97547 9.82871 9.375 10.625 9.375C11.9173 9.375 12.9688 8.32359 12.9688 7.03125V6.44531C12.9688 2.8807 10.0082 0 6.44531 0ZM6.44531 8.21094C5.47605 8.21094 4.6875 7.41457 4.6875 6.44531C4.6875 5.47605 5.47605 4.67969 6.44531 4.67969C7.44051 4.67969 8.28125 5.49246 8.28125 6.44531C8.28125 7.39816 7.44051 8.21094 6.44531 8.21094Z" transform="translate(3.51562 3.51562)" fill="currentColor"/>
</svg>
