<?xml version="1.0" encoding="utf-8"?>
<!-- Generator: Adobe Illustrator 16.0.0, SVG Export Plug-In . SVG Version: 6.00 Build 0)  -->
<!DOCTYPE svg PUBLIC "-//W3C//DTD SVG 1.1//EN" "http://www.w3.org/Graphics/SVG/1.1/DTD/svg11.dtd">
<svg version="1.1" id="Layer_1" xmlns="http://www.w3.org/2000/svg" xmlns:xlink="http://www.w3.org/1999/xlink" x="0px" y="0px"
	 width="19.309px" height="13.458px" viewBox="0 0 19.309 13.458" enable-background="new 0 0 19.309 13.458" xml:space="preserve">
<path fill="currentColor" fill-rule="evenodd" clip-rule="evenodd" d="M18.976,2.166c-0.237-1.028-1.077-1.785-2.088-1.898C14.493,0,12.07-0.001,9.657,0
	C7.246-0.001,4.82,0,2.426,0.268c-1.01,0.113-1.85,0.87-2.084,1.898C0.004,3.627,0,5.224,0,6.729c0,1.505,0,3.103,0.338,4.563
	c0.234,1.027,1.074,1.785,2.086,1.898c2.394,0.267,4.817,0.269,7.229,0.267c2.414,0.002,4.837,0,7.23-0.267
	c1.011-0.113,1.851-0.871,2.088-1.898c0.336-1.461,0.337-3.059,0.337-4.563C19.309,5.224,19.312,3.627,18.976,2.166 M7.164,9.727
	V3.341c2.045,1.068,4.078,2.128,6.138,3.202C11.248,7.607,9.215,8.664,7.164,9.727"/>
</svg>
